{"title":"FastFive(2011)MPEG-4[DaScubaDude]","uid":13454513,"size":1318060461,"categoryP":"video","categoryS":"movies","magnet":"?xt=urn:btih:3acb20bbf5d86ca677bacdfc7f039ec56982ea19&amp;dn=FastFive%282011%29MPEG-4%5BDaScubaDude%5D&amp;tr=udp%3A%2F%2Ftracker.leechers-paradise.org%3A6969&amp;tr=udp%3A%2F%2Fzer0day.ch%3A1337&amp;tr=udp%3A%2F%2Fopen.demonii.com%3A1337&amp;tr=udp%3A%2F%2Ftracker.coppersurfer.tk%3A6969&amp;tr=udp%3A%2F%2Fexodus.desync.com%3A6969","seeders":0,"leechers":2,"uploader":"dascuba","files":1,"time":1454834259,"description":"Fast Five (2011)\r\nPG-13 | 2h 11min | Action, Crime, Thriller | 29 April 2011 (USA)\r\nDominic Toretto and his crew of street racers plan a massive heist to buy their freedom while in the sights of a powerful Brazilian drug lord and a dangerous federal agent.\r\nDirector: Justin Lin\r\nWriters: Chris Morgan, Gary Scott Thompson (characters)\r\nStars: Vin Diesel, Paul Walker, Dwayne Johnson \r\n\r\nGeneral\r\nComplete name                            :Fast FiveFAST_FIVE_Title4.mp4\r\nFormat                                   : MPEG-4\r\nFormat profile                           : Base Media\r\nCodec ID                                 : isom\r\nFile size                                : 1.23 GiB\r\nDuration                                 : 2h 10mn\r\nOverall bit rate                         : 1 348 Kbps\r\nMovie name                               : FAST_FIVE\r\nWriting application                      : Lavf54.6.100\r\n\r\nVideo\r\nID                                       : 1\r\nFormat                                   : AVC\r\nFormat/Info                              : Advanced Video Codec\r\nFormat profile                           :   \r\nFormat settings, CABAC                   : No\r\nFormat settings, ReFrames                : 6 frames\r\nCodec ID                                 : avc1\r\nCodec ID/Info                            : Advanced Video Coding\r\nDuration                                 : 2h 10mn\r\nBit rate                                 : 1 213 Kbps\r\nWidth                                    : 720 pixels\r\nHeight                                   : 404 pixels\r\nDisplay aspect ratio                     : 16:9\r\nFrame rate mode                          : Constant\r\nFrame rate                               : 29.970 fps\r\nColor space                              : YUV\r\nChroma subsampling                       : 4:2:0\r\nBit depth                                : 8 bits\r\nScan type                                : Progressive\r\nBits/(Pixel*Frame)                       : 0.139\r\nStream size                              : 1.10 GiB (90%)\r\n\r\nAudio\r\nID                                       : 2\r\nFormat                                   : AAC\r\nFormat/Info                              : Advanced Audio Codec\r\nFormat profile                           : LC\r\nCodec ID                                 : 40\r\nDuration                                 : 2h 10mn\r\nBit rate mode                            : Constant\r\nBit rate                                 : 128 Kbps\r\nChannel(s)                               : 2 channels\r\nChannel positions                        : Front: L R\r\nSampling rate                            : 44.1 KHz\r\nCompression mode                         : Lossy\r\nStream size                              : 119 MiB (9%)","torrent":{"xt":"urn:btih:3acb20bbf5d86ca677bacdfc7f039ec56982ea19","amp;dn":"FastFive%282011%29MPEG-4%5BDaScubaDude%5D","amp;tr":["udp%3A%2F%2Ftracker.leechers-paradise.org%3A6969","udp%3A%2F%2Fzer0day.ch%3A1337","udp%3A%2F%2Fopen.demonii.com%3A1337","udp%3A%2F%2Ftracker.coppersurfer.tk%3A6969","udp%3A%2F%2Fexodus.desync.com%3A6969"],"infoHash":"3acb20bbf5d86ca677bacdfc7f039ec56982ea19","infoHashBuffer":{"type":"Buffer","data":[58,203,32,187,245,216,108,166,119,186,205,252,127,3,158,197,105,130,234,25]},"announce":[],"urlList":[]}}